<?xml version="1.0" encoding="UTF-8" standalone="no"?>
<!-- Created with Inkscape (http://www.inkscape.org/) -->

<svg
   xmlns:dc="http://purl.org/dc/elements/1.1/"
   xmlns:cc="http://creativecommons.org/ns#"
   xmlns:rdf="http://www.w3.org/1999/02/22-rdf-syntax-ns#"
   xmlns:svg="http://www.w3.org/2000/svg"
   xmlns="http://www.w3.org/2000/svg"
   xmlns:sodipodi="http://sodipodi.sourceforge.net/DTD/sodipodi-0.dtd"
   xmlns:inkscape="http://www.inkscape.org/namespaces/inkscape"
   width="120mm"
   height="230mm"
   viewBox="0 0 425.19685 814.96063"
   id="svg2"
   version="1.1"
   inkscape:version="0.91 r13725"
   sodipodi:docname="J.svg">
  <defs
     id="defs4">
    <clipPath
       clipPathUnits="userSpaceOnUse"
       id="clipPath4231">
      <rect
         style="opacity:0.969;fill:#efefe5;fill-opacity:1;stroke:#5f8d95;stroke-width:0.08209552;stroke-miterlimit:4;stroke-dasharray:none;stroke-opacity:1"
         id="rect4233"
         width="19.094131"
         height="34.186497"
         x="129.28784"
         y="477.07651"
         clip-path="none" />
    </clipPath>
    <clipPath
       clipPathUnits="userSpaceOnUse"
       id="clipPath4303">
      <rect
         style="opacity:0.969;fill:#f9f9f9;fill-opacity:1;stroke:#5f8d95;stroke-width:0;stroke-miterlimit:4;stroke-dasharray:none;stroke-opacity:1"
         id="rect4305"
         width="335.9216"
         height="1047.1631"
         x="408.49728"
         y="5.1991515" />
    </clipPath>
    <mask
       maskUnits="userSpaceOnUse"
       id="mask4330">
      <rect
         style="opacity:0.969;fill:#f9f9f9;fill-opacity:1;stroke:#5f8d95;stroke-width:0;stroke-miterlimit:4;stroke-dasharray:none;stroke-opacity:1"
         id="rect4332"
         width="279.93466"
         height="605.48834"
         x="426.86523"
         y="436.50592" />
    </mask>
    <clipPath
       clipPathUnits="userSpaceOnUse"
       id="clipPath4372">
      <rect
         style="opacity:0.969;fill:#ffffff;fill-opacity:1;stroke:#5f8d95;stroke-width:0;stroke-miterlimit:4;stroke-dasharray:none;stroke-opacity:1"
         id="rect4374"
         width="311.03854"
         height="680.13757"
         x="425.15958"
         y="357.70947" />
    </clipPath>
    <clipPath
       clipPathUnits="userSpaceOnUse"
       id="clipPath4482">
      <rect
         style="opacity:0.969;fill:#800000;fill-opacity:1;stroke:#5f8d95;stroke-width:0;stroke-miterlimit:4;stroke-dasharray:none;stroke-opacity:1"
         id="rect4484"
         width="443.74829"
         height="1040.9423"
         x="2.0735948"
         y="1.0519712" />
    </clipPath>
    <clipPath
       clipPathUnits="userSpaceOnUse"
       id="clipPath4488">
      <rect
         style="opacity:0.969;fill:#800000;fill-opacity:1;stroke:#5f8d95;stroke-width:0;stroke-miterlimit:4;stroke-dasharray:none;stroke-opacity:1"
         id="rect4490"
         width="406.42368"
         height="1038.8687"
         x="4.1471806"
         y="3.1255615" />
    </clipPath>
  </defs>
  <sodipodi:namedview
     id="base"
     pagecolor="#ffffff"
     bordercolor="#666666"
     borderopacity="1.0"
     inkscape:pageopacity="0.0"
     inkscape:pageshadow="2"
     inkscape:zoom="0.22889438"
     inkscape:cx="443.86284"
     inkscape:cy="648.10669"
     inkscape:document-units="px"
     inkscape:current-layer="layer1"
     showgrid="false"
     inkscape:window-width="1440"
     inkscape:window-height="783"
     inkscape:window-x="36"
     inkscape:window-y="78"
     inkscape:window-maximized="0" />
  <metadata
     id="metadata7">
    <rdf:RDF>
      <cc:Work
         rdf:about="">
        <dc:format>image/svg+xml</dc:format>
        <dc:type
           rdf:resource="http://purl.org/dc/dcmitype/StillImage" />
        <dc:title></dc:title>
      </cc:Work>
    </rdf:RDF>
  </metadata>
  <g
     inkscape:label="Layer 1"
     inkscape:groupmode="layer"
     id="layer1"
     transform="translate(0,-237.40157)">
    <path
       style="opacity:0;fill:#ffffff;fill-opacity:1;stroke:#000000;stroke-width:3.42142367;stroke-miterlimit:4;stroke-dasharray:none"
       d="m 432.84918,1004.5546 c -49.31043,-7.97925 -85.58919,-23.57846 -117.11284,-50.35643 l -11.15344,-9.47436 10.11664,-4.45005 10.11664,-4.45002 10.8836,9.65115 c 40.04731,35.51243 116.44653,55.79221 180.09935,47.80633 73.27846,-9.19345 124.919,-49.84359 133.80821,-105.3305 4.82782,-30.13541 -3.7777,-55.93664 -26.51022,-79.48344 -26.70716,-27.6638 -63.01085,-47.28129 -128.24654,-69.30078 -19.38807,-6.5442 -44.0231,-15.06127 -54.74451,-18.92682 -19.61714,-7.07287 -54.66129,-24.41003 -58.36754,-28.87578 -1.98177,-2.3879 4.74586,-13.35619 8.19231,-13.35619 0.86303,0 8.96006,4.21595 17.99341,9.36877 18.39764,10.49443 45.93744,21.72273 88.99992,36.28632 60.70242,20.52936 98.20834,37.91375 125.27514,58.06635 36.66352,27.29786 52.10277,53.54342 52.42727,89.12245 0.20362,22.32164 -2.92347,37.01608 -11.36081,53.38587 -19.21148,37.27336 -53.71005,61.77532 -106.28715,75.48845 -22.93694,5.98238 -27.84618,6.51988 -65.23843,7.14218 -28.22487,0.4697 -46.00816,-0.2289 -58.89101,-2.3135 z"
       id="path3380"
       inkscape:connector-curvature="0" />
    <path
       style="opacity:0;fill:#ffffff;fill-opacity:1;stroke:#000000;stroke-width:3.42142367;stroke-miterlimit:4;stroke-dasharray:none"
       d="m 432.84918,1004.5546 c -49.31043,-7.97925 -85.58919,-23.57846 -117.11284,-50.35643 l -11.15344,-9.47436 10.11664,-4.45005 10.11664,-4.45002 10.8836,9.65115 c 40.04731,35.51243 116.44653,55.79221 180.09935,47.80633 73.27846,-9.19345 124.919,-49.84359 133.80821,-105.3305 4.82782,-30.13541 -3.7777,-55.93664 -26.51022,-79.48344 -26.70716,-27.6638 -63.01085,-47.28129 -128.24654,-69.30078 -19.38807,-6.5442 -44.0231,-15.06127 -54.74451,-18.92682 -19.61714,-7.07287 -54.66129,-24.41003 -58.36754,-28.87578 -1.98177,-2.3879 4.74586,-13.35619 8.19231,-13.35619 0.86303,0 8.96006,4.21595 17.99341,9.36877 18.39764,10.49443 45.93744,21.72273 88.99992,36.28632 60.70242,20.52936 98.20834,37.91375 125.27514,58.06635 36.66352,27.29786 52.10277,53.54342 52.42727,89.12245 0.20362,22.32164 -2.92347,37.01608 -11.36081,53.38587 -19.21148,37.27336 -53.71005,61.77532 -106.28715,75.48845 -22.93694,5.98238 -27.84618,6.51988 -65.23843,7.14218 -28.22487,0.4697 -46.00816,-0.2289 -58.89101,-2.3135 z"
       id="path3382"
       inkscape:connector-curvature="0" />
    <path
       style="opacity:0;fill:#ffffff;fill-opacity:1;stroke:#000000;stroke-width:3.42142367;stroke-miterlimit:4;stroke-dasharray:none"
       d="m 432.84918,1004.5546 c -49.31043,-7.97925 -85.58919,-23.57846 -117.11284,-50.35643 l -11.15344,-9.47436 10.11664,-4.45005 10.11664,-4.45002 10.8836,9.65115 c 40.04731,35.51243 116.44653,55.79221 180.09935,47.80633 73.27846,-9.19345 124.919,-49.84359 133.80821,-105.3305 4.82782,-30.13541 -3.7777,-55.93664 -26.51022,-79.48344 -26.70716,-27.6638 -63.01085,-47.28129 -128.24654,-69.30078 -19.38807,-6.5442 -44.0231,-15.06127 -54.74451,-18.92682 -19.61714,-7.07287 -54.66129,-24.41003 -58.36754,-28.87578 -1.98177,-2.3879 4.74586,-13.35619 8.19231,-13.35619 0.86303,0 8.96006,4.21595 17.99341,9.36877 18.39764,10.49443 45.93744,21.72273 88.99992,36.28632 60.70242,20.52936 98.20834,37.91375 125.27514,58.06635 36.66352,27.29786 52.10277,53.54342 52.42727,89.12245 0.20362,22.32164 -2.92347,37.01608 -11.36081,53.38587 -19.21148,37.27336 -53.71005,61.77532 -106.28715,75.48845 -22.93694,5.98238 -27.84618,6.51988 -65.23843,7.14218 -28.22487,0.4697 -46.00816,-0.2289 -58.89101,-2.3135 z"
       id="path3384"
       inkscape:connector-curvature="0" />
    <rect
       style="opacity:0;fill:#efefe5;fill-opacity:1;stroke:#5f8d95;stroke-width:1.64999998;stroke-miterlimit:4;stroke-dasharray:none;stroke-opacity:1"
       id="rect4225"
       width="503.88242"
       height="454.11624"
       x="80.575661"
       y="144.1297" />
    <g
       id="g4293"
       transform="matrix(1.0066823,0,0,1.0021426,-12.88713,-22.89857)"
       mask="url(#mask4330)"
       style="fill:#f9f9f9" />
    <g
       transform="matrix(20.822763,0,0,13.761229,-1904.9843,-767.9931)"
       style="font-style:normal;font-variant:normal;font-weight:300;font-stretch:condensed;font-size:70px;line-height:125%;font-family:'Avenir Next Condensed';-inkscape-font-specification:'Avenir Next Condensed, Light Condensed';text-align:start;letter-spacing:0px;word-spacing:0px;writing-mode:lr-tb;text-anchor:start;fill:#000000;fill-opacity:1;stroke:none;stroke-width:1px;stroke-linecap:butt;stroke-linejoin:miter;stroke-opacity:1"
       id="g4366">
      <path
         d="m 110.79141,111.46978 q 0,3.36 -0.49,6.09 -0.42,2.73 -1.47,4.62 -1.05,1.89 -2.87,2.94 -1.75,1.05 -4.41,1.05 -3.570004,0 -5.670004,-2.1 -2.1,-2.17 -2.8,-5.6 l 1.4,-0.35 q 0.56,3.01 2.31,4.83 1.82,1.82 4.760004,1.82 4.48,0 6.09,-3.64 1.61,-3.71 1.61,-10.36 l 0,-35.280002 1.54,0 0,35.980002 0,0 z"
         id="path4368"
         inkscape:connector-curvature="0"
         style="fill:#000000" />
    </g>
  </g>
</svg>
